0
SECTION
2
HEADER
9
$INSUNITS
70
4
9
$ACADVER
1
AC1014
9
$HANDSEED
5
FFFF
0
ENDSEC
0
SECTION
2
TABLES
0
TABLE
2
VPORT
5
8
100
AcDbSymbolTable
0
ENDTAB
0
TABLE
2
LTYPE
5
5
100
AcDbSymbolTable
0
LTYPE
5
14
100
AcDbSymbolTableRecord
100
AcDbLinetypeTableRecord
2
BYBLOCK
70
0
0
LTYPE
5
15
100
AcDbSymbolTableRecord
100
AcDbLinetypeTableRecord
2
BYLAYER
70
0
0
ENDTAB
0
TABLE
2
LAYER
5
2
100
AcDbSymbolTable
70
2
0
LAYER
5
50
100
AcDbSymbolTableRecord
100
AcDbLayerTableRecord
2
0
70
0
6
CONTINUOUS
0
ENDTAB
0
TABLE
2
STYLE
5
3
100
AcDbSymbolTable
70
1
0
STYLE
5
11
100
AcDbSymbolTableRecord
100
AcDbTextStyleTableRecord
2
STANDARD
70
0
0
ENDTAB
0
TABLE
2
VIEW
5
6
100
AcDbSymbolTable
70
0
0
ENDTAB
0
TABLE
2
UCS
5
7
100
AcDbSymbolTable
70
0
0
ENDTAB
0
TABLE
2
APPID
5
9
100
AcDbSymbolTable
70
2
0
APPID
5
12
100
AcDbSymbolTableRecord
100
AcDbRegAppTableRecord
2
ACAD
70
0
0
ENDTAB
0
TABLE
2
DIMSTYLE
5
A
100
AcDbSymbolTable
70
1
0
ENDTAB
0
TABLE
2
BLOCK_RECORD
5
1
100
AcDbSymbolTable
70
1
0
BLOCK_RECORD
5
1F
100
AcDbSymbolTableRecord
100
AcDbBlockTableRecord
2
*MODEL_SPACE
0
BLOCK_RECORD
5
1B
100
AcDbSymbolTableRecord
100
AcDbBlockTableRecord
2
*PAPER_SPACE
0
ENDTAB
0
ENDSEC
0
SECTION
2
BLOCKS
0
BLOCK
5
20
100
AcDbEntity
100
AcDbBlockBegin
2
*MODEL_SPACE
0
ENDBLK
5
21
100
AcDbEntity
100
AcDbBlockEnd
0
BLOCK
5
1C
100
AcDbEntity
100
AcDbBlockBegin
2
*PAPER_SPACE
0
ENDBLK
5
1D
100
AcDbEntity
100
AcDbBlockEnd
0
ENDSEC
0
SECTION
2
ENTITIES
0
LWPOLYLINE
5
100
100
AcDbEntity
8
0
100
AcDbPolyline
90
76
70
1
43
0.0
10
-6.0000000894069672
20
32.340909090909093
10
-3.0000000000000004
20
32.340909090909093
10
-3.0000000000000004
20
27.272727272727284
10
0
20
27.272727272727284
10
0
20
13.636363636363651
10
-3.0000000000000004
20
13.636363636363651
10
-3.0000000000000004
20
3.0000000000000027
10
-9.3333333333333321
20
3.0000000000000004
10
-9.3333333333333321
20
0
10
-18.666666666666668
20
0
10
-18.666666666666668
20
3.0000000000000004
10
-25
20
3.0000000000000027
10
-25
20
13.636363636363651
10
-28
20
13.636363636363651
10
-28
20
27.272727272727284
10
-25
20
27.272727272727284
10
-25
20
40.909090909090921
10
-28
20
40.909090909090921
10
-28
20
54.545454545454547
10
-25
20
54.545454545454547
10
-25
20
68.181818181818187
10
-28
20
68.181818181818187
10
-28
20
81.818181818181841
10
-25
20
81.818181818181841
10
-25
20
95.454545454545467
10
-28
20
95.454545454545467
10
-28
20
109.09090909090909
10
-25
20
109.09090909090909
10
-25
20
122.72727272727273
10
-28
20
122.72727272727273
10
-28
20
136.36363636363637
10
-25
20
136.36363636363637
10
-25
20
147
10
-18.666666666666668
20
147
10
-18.666666666666668
20
150
10
-9.3333333333333321
20
150
10
-9.3333333333333321
20
147
10
-3.0000000000000004
20
147
10
-3.0000000000000004
20
136.36363636363637
10
0
20
136.36363636363637
10
0
20
122.72727272727273
10
-3.0000000000000004
20
122.72727272727273
10
-3.0000000000000004
20
117.65909090909091
10
-6.0000000894069672
20
117.65909090909091
10
-6.0000000894069672
20
118.65909090909092
10
-8.5000000894069672
20
118.65909090909092
10
-8.5000000894069672
20
117.65909090909091
10
-11.500000089406967
20
117.65909090909091
10
-11.500000089406967
20
114.15909090909093
10
-8.5000000894069672
20
114.15909090909093
10
-8.5000000894069672
20
113.15909090909091
10
-6.0000000894069672
20
113.15909090909091
10
-6.0000000894069672
20
114.15909090909093
10
-3.0000000000000004
20
114.15909090909093
10
-3.0000000000000004
20
109.09090909090909
10
0
20
109.09090909090909
10
0
20
95.454545454545467
10
-3.0000000000000004
20
95.454545454545467
10
-3.0000000000000004
20
81.818181818181841
10
0
20
81.818181818181841
10
0
20
68.181818181818187
10
-3.0000000000000004
20
68.181818181818187
10
-3.0000000000000004
20
54.545454545454547
10
0
20
54.545454545454547
10
0
20
40.909090909090921
10
-3.0000000000000004
20
40.909090909090921
10
-3.0000000000000004
20
35.840909090909072
10
-6.0000000894069672
20
35.840909090909072
10
-6.0000000894069672
20
36.840909090909086
10
-8.5000000894069672
20
36.840909090909086
10
-8.5000000894069672
20
35.840909090909072
10
-11.500000089406967
20
35.840909090909072
10
-11.500000089406967
20
32.340909090909093
10
-8.5000000894069672
20
32.340909090909093
10
-8.5000000894069672
20
31.340909090909079
10
-6.0000000894069672
20
31.340909090909079
0
ENDSEC
0
SECTION
2
OBJECTS
0
DICTIONARY
5
C
100
AcDbDictionary
3
ACAD_GROUP
350
D
3
ACAD_MLINESTYLE
350
17
0
DICTIONARY
5
D
100
AcDbDictionary
0
DICTIONARY
5
1A
330
C
100
AcDbDictionary
0
DICTIONARY
5
17
100
AcDbDictionary
0
ENDSEC
0
EOF
