0
SECTION
2
HEADER
9
$INSUNITS
70
4
9
$ACADVER
1
AC1014
9
$HANDSEED
5
FFFF
0
ENDSEC
0
SECTION
2
TABLES
0
TABLE
2
VPORT
5
8
100
AcDbSymbolTable
0
ENDTAB
0
TABLE
2
LTYPE
5
5
100
AcDbSymbolTable
0
LTYPE
5
14
100
AcDbSymbolTableRecord
100
AcDbLinetypeTableRecord
2
BYBLOCK
70
0
0
LTYPE
5
15
100
AcDbSymbolTableRecord
100
AcDbLinetypeTableRecord
2
BYLAYER
70
0
0
ENDTAB
0
TABLE
2
LAYER
5
2
100
AcDbSymbolTable
70
2
0
LAYER
5
50
100
AcDbSymbolTableRecord
100
AcDbLayerTableRecord
2
0
70
0
6
CONTINUOUS
0
ENDTAB
0
TABLE
2
STYLE
5
3
100
AcDbSymbolTable
70
1
0
STYLE
5
11
100
AcDbSymbolTableRecord
100
AcDbTextStyleTableRecord
2
STANDARD
70
0
0
ENDTAB
0
TABLE
2
VIEW
5
6
100
AcDbSymbolTable
70
0
0
ENDTAB
0
TABLE
2
UCS
5
7
100
AcDbSymbolTable
70
0
0
ENDTAB
0
TABLE
2
APPID
5
9
100
AcDbSymbolTable
70
2
0
APPID
5
12
100
AcDbSymbolTableRecord
100
AcDbRegAppTableRecord
2
ACAD
70
0
0
ENDTAB
0
TABLE
2
DIMSTYLE
5
A
100
AcDbSymbolTable
70
1
0
ENDTAB
0
TABLE
2
BLOCK_RECORD
5
1
100
AcDbSymbolTable
70
1
0
BLOCK_RECORD
5
1F
100
AcDbSymbolTableRecord
100
AcDbBlockTableRecord
2
*MODEL_SPACE
0
BLOCK_RECORD
5
1B
100
AcDbSymbolTableRecord
100
AcDbBlockTableRecord
2
*PAPER_SPACE
0
ENDTAB
0
ENDSEC
0
SECTION
2
BLOCKS
0
BLOCK
5
20
100
AcDbEntity
100
AcDbBlockBegin
2
*MODEL_SPACE
0
ENDBLK
5
21
100
AcDbEntity
100
AcDbBlockEnd
0
BLOCK
5
1C
100
AcDbEntity
100
AcDbBlockBegin
2
*PAPER_SPACE
0
ENDBLK
5
1D
100
AcDbEntity
100
AcDbBlockEnd
0
ENDSEC
0
SECTION
2
ENTITIES
0
CIRCLE
5
100
100
AcDbEntity
8
0
100
AcDbCircle
10
-160.5214381306522
20
82.807367619681401
30
0
40
5.7500000000000107
210
0
220
0
230
1
0
CIRCLE
5
101
100
AcDbEntity
8
0
100
AcDbCircle
10
-40.299347398733516
20
67.738446172283659
30
0
40
5.7499999999999973
210
0
220
0
230
1
0
CIRCLE
5
102
100
AcDbEntity
8
0
100
AcDbCircle
10
-43.440943276623514
20
95.935880596639933
30
0
40
5.7500000000000018
210
0
220
0
230
1
0
CIRCLE
5
103
100
AcDbEntity
8
0
100
AcDbCircle
10
-139.3147962527575
20
51.497641100299248
30
0
40
5.7500000000000107
210
0
220
0
230
1
0
CIRCLE
5
104
100
AcDbEntity
8
0
100
AcDbCircle
10
-170.9613812966698
20
117.39164284820745
30
0
40
5.7499999999999929
210
0
220
0
230
1
0
CIRCLE
5
105
100
AcDbEntity
8
0
100
AcDbCircle
10
-48.038461076178493
20
40.297248331581116
30
0
40
5.7499999999999929
210
0
220
0
230
1
0
CIRCLE
5
106
100
AcDbEntity
8
0
100
AcDbCircle
10
-57.630386664051336
20
121.7187071860069
30
0
40
5.7500000000000107
210
0
220
0
230
1
0
CIRCLE
5
107
100
AcDbEntity
8
0
100
AcDbCircle
10
-102.10650468405274
20
20.786990631893904
30
0
40
5.7499999999999929
210
0
220
0
230
1
0
LWPOLYLINE
5
108
100
AcDbEntity
8
0
100
AcDbPolyline
90
180
70
1
43
0.0
10
-200
20
7.8947368421052566
10
-196.29999999999998
20
7.8947368421052566
10
-196.29999999999998
20
15.789473684210513
10
-200
20
15.789473684210513
10
-200
20
23.684210526315788
10
-196.29999999999998
20
23.684210526315788
10
-196.29999999999998
20
31.578947368421044
10
-200
20
31.578947368421044
10
-200
20
39.473684210526315
10
-196.29999999999998
20
39.473684210526315
10
-196.29999999999998
20
47.368421052631575
10
-200
20
47.368421052631575
10
-200
20
55.263157894736835
10
-196.29999999999998
20
55.263157894736835
10
-196.29999999999998
20
63.157894736842088
10
-200
20
63.157894736842088
10
-200
20
71.05263157894737
10
-196.29999999999998
20
71.05263157894737
10
-196.29999999999998
20
78.947368421052616
10
-200
20
78.947368421052616
10
-200
20
86.84210526315789
10
-196.29999999999998
20
86.84210526315789
10
-196.29999999999998
20
94.73684210526315
10
-200
20
94.73684210526315
10
-200
20
102.63157894736842
10
-196.29999999999998
20
102.63157894736842
10
-196.29999999999998
20
110.52631578947367
10
-200
20
110.52631578947367
10
-200
20
118.42105263157893
10
-196.29999999999998
20
118.42105263157893
10
-196.29999999999998
20
126.31578947368419
10
-200
20
126.31578947368419
10
-200
20
134.21052631578948
10
-196.29999999999998
20
134.21052631578948
10
-196.29999999999998
20
142.10526315789474
10
-200
20
142.10526315789474
10
-200
20
150
10
-192.59259259259261
20
149.99999999999997
10
-192.59259259259261
20
146.29999999999998
10
-185.18518518518519
20
146.29999999999998
10
-185.18518518518519
20
149.99999999999997
10
-177.77777777777777
20
149.99999999999997
10
-177.77777777777777
20
146.29999999999998
10
-170.37037037037041
20
146.29999999999998
10
-170.37037037037041
20
149.99999999999997
10
-162.96296296296302
20
149.99999999999997
10
-162.96296296296302
20
146.29999999999998
10
-155.5555555555556
20
146.29999999999998
10
-155.5555555555556
20
149.99999999999997
10
-148.14814814814815
20
149.99999999999997
10
-148.14814814814815
20
146.29999999999998
10
-140.74074074074076
20
146.29999999999998
10
-140.74074074074076
20
149.99999999999997
10
-133.33333333333337
20
149.99999999999997
10
-133.33333333333337
20
146.29999999999998
10
-125.92592592592595
20
146.29999999999998
10
-125.92592592592595
20
149.99999999999997
10
-118.51851851851855
20
149.99999999999997
10
-118.51851851851855
20
146.29999999999998
10
-111.11111111111114
20
146.29999999999998
10
-111.11111111111114
20
149.99999999999997
10
-103.7037037037037
20
149.99999999999997
10
-103.7037037037037
20
146.29999999999998
10
-96.296296296296305
20
146.29999999999998
10
-96.296296296296305
20
149.99999999999997
10
-88.888888888888914
20
149.99999999999997
10
-88.888888888888914
20
146.29999999999998
10
-81.481481481481509
20
146.29999999999998
10
-81.481481481481509
20
149.99999999999997
10
-74.07407407407409
20
149.99999999999997
10
-74.07407407407409
20
146.29999999999998
10
-66.666666666666686
20
146.29999999999998
10
-66.666666666666686
20
149.99999999999997
10
-59.259259259259274
20
149.99999999999997
10
-59.259259259259274
20
146.29999999999998
10
-51.851851851851869
20
146.29999999999998
10
-51.851851851851869
20
149.99999999999997
10
-44.444444444444464
20
149.99999999999997
10
-44.444444444444464
20
146.29999999999998
10
-37.037037037037059
20
146.29999999999998
10
-37.037037037037059
20
149.99999999999997
10
-29.629629629629648
20
149.99999999999997
10
-29.629629629629648
20
146.29999999999998
10
-22.222222222222243
20
146.29999999999998
10
-22.222222222222243
20
149.99999999999997
10
-14.814814814814827
20
149.99999999999997
10
-14.814814814814827
20
146.29999999999998
10
-7.4074074074074225
20
146.29999999999998
10
-7.4074074074074225
20
149.99999999999997
10
0
20
150
10
0
20
142.10526315789474
10
-3.7000000000000006
20
142.10526315789474
10
-3.7000000000000006
20
134.21052631578948
10
0
20
134.21052631578948
10
0
20
126.31578947368419
10
-3.7000000000000099
20
126.31578947368419
10
-3.7000000000000099
20
118.42105263157893
10
0
20
118.42105263157893
10
0
20
110.52631578947367
10
-3.7000000000000099
20
110.52631578947367
10
-3.7000000000000099
20
102.63157894736842
10
0
20
102.63157894736842
10
0
20
94.73684210526315
10
-3.7000000000000099
20
94.73684210526315
10
-3.7000000000000099
20
86.84210526315789
10
0
20
86.84210526315789
10
0
20
78.947368421052616
10
-3.7000000000000099
20
78.947368421052616
10
-3.7000000000000099
20
71.05263157894737
10
0
20
71.05263157894737
10
0
20
63.157894736842088
10
-3.7000000000000099
20
63.157894736842088
10
-3.7000000000000099
20
55.263157894736835
10
0
20
55.263157894736835
10
0
20
47.368421052631575
10
-3.7000000000000099
20
47.368421052631575
10
-3.7000000000000099
20
39.473684210526315
10
0
20
39.473684210526315
10
0
20
31.578947368421044
10
-3.7000000000000099
20
31.578947368421044
10
-3.7000000000000099
20
23.684210526315788
10
0
20
23.684210526315788
10
0
20
15.789473684210513
10
-3.7000000000000099
20
15.789473684210513
10
-3.7000000000000099
20
7.8947368421052566
10
0
20
7.8947368421052566
10
0
20
0
10
-7.4074074074074225
20
0
10
-7.4074074074074225
20
3.7000000000000006
10
-14.814814814814827
20
3.7000000000000006
10
-14.814814814814827
20
0
10
-22.222222222222243
20
0
10
-22.222222222222243
20
3.7000000000000006
10
-29.629629629629648
20
3.7000000000000006
10
-29.629629629629648
20
0
10
-37.037037037037059
20
0
10
-37.037037037037059
20
3.7000000000000006
10
-44.444444444444464
20
3.7000000000000006
10
-44.444444444444464
20
0
10
-51.851851851851869
20
0
10
-51.851851851851869
20
3.7000000000000006
10
-59.259259259259274
20
3.7000000000000006
10
-59.259259259259274
20
0
10
-66.666666666666686
20
0
10
-66.666666666666686
20
3.7000000000000006
10
-74.07407407407409
20
3.7000000000000006
10
-74.07407407407409
20
0
10
-81.481481481481509
20
0
10
-81.481481481481509
20
3.7000000000000006
10
-88.888888888888914
20
3.7000000000000006
10
-88.888888888888914
20
0
10
-96.296296296296305
20
0
10
-96.296296296296305
20
3.7000000000000006
10
-103.7037037037037
20
3.7000000000000006
10
-103.7037037037037
20
0
10
-111.11111111111114
20
0
10
-111.11111111111114
20
3.7000000000000006
10
-118.51851851851855
20
3.7000000000000006
10
-118.51851851851855
20
0
10
-125.92592592592595
20
0
10
-125.92592592592595
20
3.7000000000000006
10
-133.33333333333337
20
3.7000000000000006
10
-133.33333333333337
20
0
10
-140.74074074074076
20
0
10
-140.74074074074076
20
3.7000000000000006
10
-148.14814814814815
20
3.7000000000000006
10
-148.14814814814815
20
0
10
-155.5555555555556
20
0
10
-155.5555555555556
20
3.7000000000000006
10
-162.96296296296302
20
3.7000000000000006
10
-162.96296296296302
20
0
10
-170.37037037037041
20
0
10
-170.37037037037041
20
3.7000000000000006
10
-177.77777777777777
20
3.7000000000000006
10
-177.77777777777777
20
0
10
-185.18518518518519
20
0
10
-185.18518518518519
20
3.7000000000000006
10
-192.59259259259261
20
3.7000000000000006
10
-192.59259259259261
20
0
10
-200
20
0
0
ENDSEC
0
SECTION
2
OBJECTS
0
DICTIONARY
5
C
100
AcDbDictionary
3
ACAD_GROUP
350
D
3
ACAD_MLINESTYLE
350
17
0
DICTIONARY
5
D
100
AcDbDictionary
0
DICTIONARY
5
1A
330
C
100
AcDbDictionary
0
DICTIONARY
5
17
100
AcDbDictionary
0
ENDSEC
0
EOF
